<?xml version="1.0" encoding="utf-8"?>
<!-- Generator: Adobe Illustrator 23.0.1, SVG Export Plug-In . SVG Version: 6.00 Build 0)  -->
<svg version="1.1" id="Capa_1" xmlns="http://www.w3.org/2000/svg" xmlns:xlink="http://www.w3.org/1999/xlink" x="0px" y="0px"
	 viewBox="0 0 194.12 194.12" style="enable-background:new 0 0 194.12 194.12;" xml:space="preserve">
<style type="text/css">
	.st0{opacity:0.6;}
	.st1{fill:#A2C495;}
	.st2{fill:#ACCAA1;}
	.st3{fill:#DBC8BA;}
</style>
<g>
	<g class="st0">
		<path class="st1" d="M137.33,140.84c7.07-16.79,6.79-30.53,7.01-45.03c0.13-8.66,0.24-17.51-2.2-25.82
			c-3.61-12.29-12.71-22.27-23.39-27.86s-22.82-7.06-34.5-5.93c-7.8,0.75-15.75,2.77-21.87,7.98c-13.41,11.42-13.6,33.24-12.6,52
			c0.4,7.47,0.79,14.93,1.19,22.4c0.41,7.76,0.84,15.62,3.08,23.04c5.74,19.02,23.99,32.57,42.19,32.13
			C114.44,173.33,131.27,159.46,137.33,140.84"/>
		<g>
			<g>
				<g>
					<g>
						<polygon class="st2" points="134.79,140.02 134.59,140.13 134.83,140.68 						"/>
						<path class="st2" d="M134.64,143.09c0.1-0.05,0.2,0.03,0.3-0.02l-0.51-2.04C133.54,141.51,135.24,142.76,134.64,143.09z"/>
						<path class="st2" d="M134.36,143.53c-0.53,0.51-0.14,0.98-0.03,1.2C134.03,144.34,134.98,143.62,134.36,143.53z"/>
						<path class="st2" d="M87.31,171.22c0.06,0.01,0.15,0.01,0.21,0.01C87.42,171.19,87.35,171.19,87.31,171.22z"/>
						<path class="st2" d="M72.15,166.53l-0.39,0.27c1.44,0.59,2.86,1.34,4.23,2.24c0.7,0.42,1.44,0.79,2.16,1.18
							c0.37,0.19,0.73,0.37,1.11,0.53c0.38,0.15,0.77,0.27,1.16,0.38l-0.26,0.06c0.95,0.38,1.87,0.8,2.83,1.1
							c0.97,0.27,1.93,0.54,2.88,0.81c0.97,0.19,1.95,0.35,2.92,0.51c0.97,0.18,1.96,0.17,2.93,0.25c3.9,0.17,7.78-0.32,11.62-1.31
							c-0.11,0.08-0.12,0.21-0.24,0.3c0.34-0.25,0.69-0.62,1.11-0.69c0.13,0.07-0.07,0.23-0.19,0.31c0.89,0.13,2.1-0.21,3.14-0.76
							c1.05-0.52,2.02-0.97,2.6-0.94c0.41-0.26,0.48-0.63,0.15-0.74c2.83-1.22,5.54-2.91,8.12-4.77c2.5-1.97,4.85-4.16,6.75-6.6
							c0.28-0.14,0.47-0.04,0.59,0.19c0.69-1.18,1.4-2.33,2.17-3.43c0.69-1.17,1.52-2.22,2.23-3.37c0.72-1.14,1.53-2.24,2.18-3.42
							l1.05-1.75l0.91-1.81c-0.2-0.31-0.53,0.36-0.61-0.25c-0.55,0.69-0.64,1.5-0.87,2.25c-0.22,0.75-0.45,1.48-1.07,2.03
							l-0.17-0.32c-0.72,0.88,0.58,0.6-0.38,1.4c-0.47,0.26-0.27-0.3-0.4-0.13c-1.16,2.11-2.81,3.97-3.71,6.17
							c-0.87-0.01-1.68,1.99-2.8,2.15c-0.25,0.62-0.74,1.01-0.6,1.49c-3.16,2.81-6.56,5.41-10.3,7.51
							c-3.73,2.09-7.84,3.66-12.11,4.3c-0.47,0.23-0.97,0.44-1.49,0.59c-0.52,0.12-1.06,0.2-1.62,0.26
							c-0.55,0.05-1.12,0.11-1.69,0.11c-0.57-0.03-1.15-0.08-1.73-0.14c-0.58-0.07-1.17-0.08-1.75-0.21
							c-0.58-0.11-1.17-0.22-1.76-0.33c-1.19-0.15-2.35-0.48-3.56-0.6c-0.02-0.05-0.01-0.1,0.03-0.13c-0.81,0.03-1.76-0.17-2.75-0.4
							c-0.49-0.12-0.99-0.24-1.47-0.41c-0.47-0.19-0.93-0.39-1.36-0.6l-1.7-0.09c-5.05-2.82-9.73-6.22-13.82-10.32
							c-4.02-4.14-7.35-9.04-9.35-14.45c-2.34-6.12-2.88-12.35-3.34-18.52c-0.41-6.2-0.84-12.49-2.05-19.02
							c0.12,0.01,0.19-0.1,0.26,0.24c-0.46-3.79-0.18-7.27-0.64-10.84l0.13,0c-0.76-4.4-0.9-9.01-0.84-13.57
							c0.06-4.56,0.33-9.04,0.36-13.33c0.79-5.12,2.03-10.55,4.45-15.59c2.44-4.99,6.05-9.58,10.72-12.56L66,41.98
							c3.6-2.53,7.89-3.75,12.13-4.38c4.26-0.64,8.57-0.74,12.92-1c4.48,0.27,9.08,0.3,13.7,0.93c2.31,0.3,4.61,0.77,6.84,1.47
							c2.23,0.69,4.38,1.59,6.33,2.8c2.24,1.81,5.15,3.17,7.93,4.88c2.77,1.68,5.38,3.71,6.67,6.14c2.91,4.72,5.53,9.23,7.63,14.07
							c2.15,4.81,3.62,10.03,4.55,15.48c-0.01,5.07,0.13,10.1,0.24,15.1c0.11,4.98,0.15,9.98-0.88,14.82
							c0.28,2.34-0.21,4.77-0.91,7.19c-0.69,2.43-1.55,4.85-2,7.36l0.34-0.11c-1.3,1.56,0.28,4.32-1.39,5.06l0-0.2
							c-0.97,0.71,0.93,2.66-0.06,2.98l0.29,0.26c-0.3,1.16-0.42,0.01-0.86,0.83c-0.07,0.34,0.56,0.33,0.13,0.95
							c-0.71-0.17-0.87,0.54-1.06,1.23c-0.21,0.68-0.44,1.36-1.21,1.09c0.24-0.59-0.95,0.7-0.74-0.76c-0.3,0.32-0.95,2.15-0.25,2.26
							c0.6,0.44,0.89,1.4,1.87,0.5l-0.4-0.43c0.64-0.18,0.36-0.19,0.78-0.17c0.65-1.46,1.47-1.36,2.16-2.34
							c-0.02,0.01-0.04,0.01-0.06-0.02c-0.33-0.96,0.38-1.86,0.68-2.42l0.36-0.14c0.7-0.18-0.6-2.12,0.26-1.33
							c0.75-3.2,1.69-6.84,2.31-10.44c-0.3-0.57,0.48-2.75-0.41-2.09c1.04-0.75,1.61-3.43,1.68-4.44c0.08,0.05,0.17,0.1,0.12,0.25
							c1.34-1.84-0.81-2.4,0.72-4.11c-0.95-0.35,0.53-3.31-0.59-4.39c0.23-0.21,0.43-0.28,0.6-0.19c0.17-3.28,0.57-6.87,0.65-9.61
							c-0.84-2.34,0.48-5.66-0.71-7.7c0.27-1.67,0.76-4.43,0.18-6.79l0.16,0.23c-0.15-2.67-0.53-6.07-1.55-7.8
							c1.03-0.95,0.62-2.1,0.75-3.33c-0.44-0.85-0.82-2.19-1.32-3.63c-0.5-1.43-1.08-2.98-1.83-4.18c0.17-0.29-0.09-0.82-0.32-1.31
							c-0.25-0.48-0.45-0.95-0.13-1.17c-1.13-1.66-2.37-3.35-3.58-5.09c-1.28-1.7-2.54-3.48-3.94-5.18
							c-2.73-3.45-5.78-6.75-8.88-9.67l0.13,0.02c-1.16-0.28-2.69-0.22-3.9-0.3c-0.05-0.11,0.02-0.22,0.21-0.09
							c-1.33-0.67-2.19-2.01-3.6-2.56c0.07-0.11,0.07-0.11,0.34-0.11c-1.4-0.33-2.38-1.84-4.17-1.93l-0.01-0.22l-1.09-0.12
							c0.11-0.23,0.29-0.57,0.79-0.29c-6.05-2.53-12.71-3.59-19.29-3.67c-3.3-0.04-6.59,0.16-9.85,0.51
							c-3.26,0.35-6.52,0.84-9.75,1.59l0.42-0.35c-0.81,0.33-1.6,0.7-2.38,1.07c-0.02-0.13,0.08-0.22,0.18-0.31
							c-3.31,0.5-6.26,2.51-9.01,4.14c-0.05-0.11,0.23-0.59-0.23-0.46c-0.84,0.93-1.74,1.32-2.48,1.72
							c-0.73,0.4-1.29,0.82-1.23,1.79c-0.12,0.03-0.4-0.16-0.3-0.42c-0.57,0.62-1.15,1.24-1.72,1.87l-1.55,2.01
							c-0.55,0.65-0.98,1.37-1.43,2.09c-0.44,0.72-0.96,1.4-1.31,2.16l-1.19,2.23l-1.03,2.29c-0.37,0.76-0.65,1.54-0.93,2.32
							c-0.27,0.78-0.61,1.55-0.84,2.35c-0.02,1.43-0.28,2.81-0.44,4.23c-0.1,0.71-0.21,1.41-0.34,2.12
							c-0.1,0.71-0.21,1.42-0.31,2.14c-0.45,2.86-0.69,5.78-0.34,8.59L49,77.8c0.29,3.64,0.25,7.34,0.24,11.09
							c0,3.75,0,7.54,0.29,11.26c0.06,3.1,0.48,5.18,0.66,8.29l-0.32,0.1c1.53,5.17-0.56,11.07,1.16,16.47l-0.47-0.35
							c0.74,0.8,0.02,3.34,1.16,2.91l-0.26,1c0.95,1.78,0.98,3.45,1.01,5.26c0.04,1.8,0.09,3.77,1.14,5.85l-0.34-0.22
							c0.49,1.13,1.07,2.42,1.14,3.34c-0.08-0.12-0.14-0.03-0.31-0.28c0.05,0.98,0.25,1.97,0.56,2.93c0.37,0.94,0.83,1.86,1.32,2.76
							c0.48,0.91,1.14,1.73,1.69,2.6c0.54,0.87,1.17,1.68,1.71,2.52l-0.68-0.1c0.8,0.66,1.52,1.82,2.43,2.97
							c0.44,0.58,0.86,1.2,1.32,1.77c0.48,0.54,0.97,1.06,1.45,1.49l-0.28,0.05l1.12,0.73l-0.33,0.36
							C66.78,162.99,69.4,164.8,72.15,166.53z"/>
						<path class="st2" d="M104.01,172.46c-0.01,0-0.02,0-0.04-0.01C103.89,172.52,103.93,172.5,104.01,172.46z"/>
						<path class="st2" d="M141,137.63c-0.08,0.14-0.15,0.25-0.23,0.36C140.87,137.99,140.93,137.74,141,137.63z"/>
					</g>
				</g>
			</g>
		</g>
	</g>
	<g>
		<path class="st3" d="M89.27,152.04c9.64,0.04,20.72-6.73,27.74-12.98c17.12-15.25,17.43-41.87,15.08-62.89
			c-1.39-12.36-5.11-24.49-10.86-35.52c-3.85-7.38-8.6-15.22-14.18-21.71c0.22,2.2,0.4,4.26-0.28,6.7
			c-1.35,4.88-3.75,9.67-6.47,13.93c-5.28,8.26-11.05,16.16-16.16,24.55c-11.3,18.56-21.71,39.62-18.97,61.97
			C66.68,138.41,75.31,151.98,89.27,152.04z"/>
		<g>
			<g>
				<path d="M103.7,15.56c-0.03-0.06-0.07-0.13-0.1-0.19c-0.61-1.15,1.9-0.22,2.2,0.09c13.88,14.09,23.57,34.23,27.44,53.43
					c4.49,22.24,4.92,52.03-11.68,69.69c-6.52,6.93-16.78,13.02-26.14,14.97c-9.28,1.93-17.96-2.44-24.46-8.88
					c-7.01-6.95-8.39-16.1-8.94-25.56c-0.33-5.65,0.75-10.81,2-16.31c1.45-6.37,2.75-12.58,5.74-18.43
					c3.31-6.47,6.8-12.93,10.44-19.22c3.36-5.81,7.4-11.2,10.8-16.95c3.29-5.57,7.19-10.56,10.21-16.31
					c1.41-2.69,2.63-5.63,3.22-8.63c0.56-2.85-0.24-5.24-0.36-8.06c0.87,0.33,1.74,0.67,2.62,1c-0.05,0.21-0.1,0.41-0.14,0.62
					c-0.26,1.12-2.82-0.11-2.62-1c0.05-0.21,0.1-0.41,0.14-0.62c0.27-1.16,2.58,0.11,2.62,1c0.15,3.48,0.92,6.17-0.04,9.66
					c-1.35,4.88-3.75,9.67-6.47,13.93c-5.28,8.26-11.05,16.16-16.16,24.55c-11.3,18.56-21.71,39.62-18.97,61.97
					c1.51,12.32,10.14,25.89,24.1,25.95c9.64,0.04,20.72-6.73,27.74-12.98c17.12-15.25,17.43-41.87,15.08-62.89
					c-1.39-12.36-5.11-24.49-10.86-35.52c-4.52-8.67-10.28-17.99-17.18-25c0.73,0.03,1.47,0.06,2.2,0.09
					c0.03,0.06,0.07,0.13,0.1,0.19C106.79,17.17,104.13,16.36,103.7,15.56L103.7,15.56z"/>
			</g>
		</g>
		<g>
			<g>
				<path d="M107.95,18.38c0.87,7.37,1.47,14.73,2.6,22.08c1.1,7.15,2.09,14.28,2.22,21.51c0.25,14.39-1.73,29.12-5.42,43.02
					c-3.78,14.26-9.9,27.92-16.79,40.94c-6.61,12.49-14.1,24.5-23.35,35.25c-0.61,0.71-2.76-0.55-2.26-1.13
					C74.2,169.3,81.7,157.29,88.3,144.8c6.64-12.55,12.55-25.68,16.37-39.38c3.97-14.24,6.02-29.46,5.78-44.25
					c-0.12-7.24-1.12-14.37-2.22-21.51c-1.13-7.34-1.74-14.7-2.6-22.08C105.52,16.72,107.85,17.53,107.95,18.38L107.95,18.38z"/>
			</g>
		</g>
		<g>
			<g>
				<path d="M113.48,29.92c0.01-0.06,0.03-0.11,0.04-0.17c0.2-0.82,2.76,0.34,2.57,1.19c-1.38,6.3-1.81,12.85-3.91,18.99
					c-0.19,0.55-1.35,0.09-1.61-0.06c-2.22-1.35-3.95-3.68-5.52-5.72c-1.18-1.54-2.44-3.02-3.62-4.55
					c-0.64-0.83-1.03-2.27-1.69-2.97c-1.28-1.37,1.14-1.17,1.87-0.39c1.49,1.6,2.57,3.81,3.94,5.6c1.63,2.12,3.36,5.34,5.71,6.77
					c-0.54-0.02-1.07-0.04-1.61-0.06c2.05-6,2.47-12.45,3.82-18.6c0.86,0.4,1.71,0.8,2.57,1.19c-0.01,0.06-0.03,0.11-0.04,0.17
					C115.8,32.13,113.23,30.97,113.48,29.92L113.48,29.92z"/>
			</g>
		</g>
		<g>
			<g>
				<path d="M123.28,41.59c-2.7,6.04-5.45,12.42-7.63,18.66c-0.64,1.82-1.03,5.74-3.51,5.8c-0.62,0.01-1.74-0.56-1.91-1.22
					c-1.45-5.52-5.59-10.01-9.62-13.78c-2.44-2.29-4.01-5.03-6.14-7.57c-0.98-1.17,1.56-0.71,2.07-0.15
					c0.06,0.07,0.13,0.14,0.19,0.21c1.28,1.37-1.15,1.17-1.87,0.39c-0.06-0.07-0.13-0.14-0.19-0.21c0.69-0.05,1.38-0.1,2.07-0.15
					c1.55,1.85,2.83,4.11,4.43,5.87c1.64,1.8,3.67,3.15,5.27,5c2.62,3.03,5.28,7.02,6.3,10.94c-0.64-0.41-1.27-0.81-1.91-1.22
					c1.08-0.03,3.33-7.9,3.7-8.75c2.2-5.03,3.97-10.22,6.21-15.23C121.15,39.33,123.7,40.65,123.28,41.59L123.28,41.59z"/>
			</g>
		</g>
		<g>
			<g>
				<path d="M127.92,51.97c1.27,1.1,0.58,2.17-0.05,3.53c-1.83,3.96-4.02,7.86-6.25,11.61c-2.25,3.77-4.43,7.71-6.84,11.37
					c-0.92,1.4-1.7,2.7-3.57,2.49c-1.46-0.16-1.99-1.17-2.78-2.23c-2.59-3.51-5.21-6.78-8.06-10.11c-4.5-5.25-9.03-10.56-12.9-16.3
					c0.76,0.03,1.52,0.06,2.27,0.09c0.1,0.17,0.21,0.34,0.31,0.51c0.84,1.38-1.79,0.7-2.27-0.09c-0.1-0.17-0.21-0.34-0.31-0.51
					c-0.85-1.41,1.78-0.64,2.27,0.09c5.82,8.62,13.61,15.67,19.58,24.15c0.71,1.01,0.81,2.11,1.84,1.85
					c0.67-0.17,1.37-1.65,1.74-2.25c1.81-2.95,3.46-5.99,5.28-8.94c0.81-1.32,8.78-14.07,7.87-14.86
					C124.64,51.14,127.14,51.3,127.92,51.97L127.92,51.97z"/>
			</g>
		</g>
		<g>
			<g>
				<path d="M132.74,68.14c-4.61,6.56-9.3,13.12-13.84,19.71c-1.89,2.75-3.93,5.46-6.31,7.83c-0.85,0.85-2.97,3.79-4.36,4.1
					c-0.73,0.16-1.95-0.46-2.18-1.2c-0.86-2.81-3.71-5.52-5.28-8.01c-2.29-3.63-5.07-6.89-7.45-10.45c-2.08-3.1-4.52-5.41-6.08-8.85
					c-1.47-3.24-2.56-6.65-3.98-9.88c0.84,0.19,1.68,0.37,2.53,0.56c0.08,0.25,0.16,0.51,0.24,0.76c0.39,1.23-2.25,0.32-2.53-0.56
					c-0.08-0.25-0.16-0.51-0.24-0.76c-0.41-1.29,2.2-0.19,2.53,0.56c1.31,3,2.3,6.17,3.67,9.19c1.89,4.15,5.16,7.99,7.81,11.74
					c2.3,3.27,4.71,6.42,6.96,9.73c1.43,2.1,3.58,4.05,4.34,6.52c-0.73-0.4-1.45-0.8-2.18-1.2c1.05-0.23,4.92-5.12,5.53-5.77
					c2.22-2.4,3.85-5.05,5.79-7.66c4.33-5.83,8.33-11.81,12.5-17.75C130.82,65.91,133.29,67.36,132.74,68.14L132.74,68.14z"/>
			</g>
		</g>
		<g>
			<g>
				<path d="M135.31,87.07c-3.75,8.22-10.16,12.58-16.64,18.48c-3.1,2.83-6.23,5.2-9.59,7.68c-2.31,1.7-4.21,4.82-6.92,5.83
					c-0.65,0.24-2.03-0.52-2.18-1.2c-1.02-4.6-4.09-8.62-6.5-12.6c-2.45-4.05-3.78-8.35-6-12.49c-2.28-4.24-4.64-8.42-6.99-12.62
					c-1.65-2.95-3.02-6.86-2.57-10.3c0.14-1.1,2.74,0.06,2.62,1c-0.65,4.95,2.31,9.25,4.63,13.31c2.17,3.8,4.43,7.75,6.13,11.78
					c1.75,4.17,3.57,7.96,5.93,11.84c2.07,3.41,4.42,6.66,5.3,10.63c-0.73-0.4-1.45-0.8-2.18-1.2c2.58-0.96,5.15-4.75,7.51-6.34
					c3.1-2.1,5.8-4.45,8.58-7c6.29-5.77,12.71-10.18,16.37-18.2C133.19,84.81,135.74,86.13,135.31,87.07L135.31,87.07z"/>
			</g>
		</g>
		<g>
			<g>
				<path d="M135.2,105c-2.61,2.2-4.71,5.13-7.24,7.45c-3.38,3.1-7.35,5.43-11.08,8.08c-3.45,2.45-6.91,4.73-10.5,6.93
					c-2.49,1.52-4.13,4.29-7.16,4.86c-0.72,0.13-1.97-0.44-2.18-1.2c-0.66-2.46-2.97-4.52-4.29-6.6c-1.4-2.2-2.23-4.56-3.19-6.97
					c-1.79-4.51-3.86-8.86-5.96-13.21c-2.26-4.69-5.11-9.15-6.62-14.17c-1.47-4.88-1.56-10.29-2.11-15.33
					c0.87,0.33,1.74,0.67,2.62,1c-0.03,0.14-0.06,0.29-0.09,0.43c-0.24,1.11-2.81-0.1-2.62-1c0.03-0.14,0.06-0.29,0.09-0.43
					c0.26-1.19,2.52,0.16,2.62,1c0.59,5.44,0.7,11.31,2.54,16.48c1.77,4.99,4.68,9.93,7.17,14.61c2.01,3.77,3.64,7.95,5.17,11.95
					c1.22,3.19,2.74,5.84,4.73,8.61c0.9,1.25,2.06,2.69,2.47,4.2c-0.73-0.4-1.45-0.8-2.18-1.2c2.52-0.47,2.96-2.46,4.79-3.72
					c1.32-0.91,2.9-1.42,4.29-2.25c3.33-1.99,6.36-4.42,9.53-6.64c3.3-2.3,6.73-4.37,9.71-7.1c2.54-2.33,4.62-5.24,7.24-7.45
					C133.67,102.72,136.05,104.28,135.2,105L135.2,105z"/>
			</g>
		</g>
		<g>
			<g>
				<path d="M131.21,123.35c-1.95,1.16-3.55,2.77-5.49,3.94c-2.28,1.37-4.92,2.11-7.18,3.52c-3.79,2.36-7.44,4.86-11.32,7.09
					c-5.48,3.14-13.53,5.9-17.29-0.42c-4.92-8.28-8.96-17.04-12.93-25.77c-3.86-8.5-10.31-16.43-7.81-26.33
					c0.21-0.82,1.95,0.25,2.2,0.5c0.07,0.07,0.15,0.15,0.22,0.22c1.33,1.32-1.12,1.13-1.87,0.39c-0.07-0.07-0.15-0.15-0.22-0.22
					c0.73,0.17,1.46,0.33,2.2,0.5c-2.25,8.91,3.41,16.37,7.07,23.97c3.67,7.64,7.09,15.42,11.21,22.85c0.67,1.2,1.82,4.6,2.96,5.31
					c1.59,1,5.08-0.02,6.77-0.47c3.87-1.03,6.59-3.39,9.98-5.24c3.21-1.75,6.16-3.88,9.46-5.47c3.59-1.73,6.43-4.01,9.81-6.03
					C129.8,121.18,132.1,122.82,131.21,123.35L131.21,123.35z"/>
			</g>
		</g>
		<g>
			<g>
				<path d="M120.37,139.59c-3.7,4.69-10.81,8.18-16.67,8.98c-3.45,0.47-7.36,1.1-10.84,1.11c-1.96,0.01-2.88-0.45-4.19-1.7
					c-5.67-5.41-10.83-11.69-15.32-18.11c-4.7-6.72-9.27-12.67-10.06-21.04c-0.05-0.5,0.69-0.43,0.97-0.39
					c0.13,0.02,0.27,0.04,0.4,0.06c1.06,0.16,2.53,2.06,0.67,1.79c-0.13-0.02-0.27-0.04-0.4-0.06c0.32-0.13,0.65-0.26,0.97-0.39
					c0.72,7.73,4.86,13.33,9.26,19.46c3.77,5.25,7.8,10.41,12.32,15.03c2,2.04,2.2,3.46,5.02,3.31c3.03-0.16,6.37-0.41,9.37-0.89
					c5.55-0.89,12.41-4.01,15.98-8.53C118.5,137.38,120.94,138.86,120.37,139.59L120.37,139.59z"/>
			</g>
		</g>
	</g>
</g>
</svg>
